<svg width="80" height="80" viewBox="0 0 80 80" fill="none" xmlns="http://www.w3.org/2000/svg">
<path d="M12.2115 68.7715C8.39112 65.0817 5.34383 60.6679 3.24747 55.7877C1.15111 50.9075 0.0476629 45.6587 0.00151027 40.3476C-0.0446424 35.0364 0.967426 29.7692 2.97866 24.8534C4.9899 19.9375 7.96002 15.4714 11.7157 11.7157C15.4714 7.96002 19.9375 4.9899 24.8534 2.97866C29.7692 0.967426 35.0364 -0.0446424 40.3476 0.00151027C45.6587 0.0476629 50.9075 1.15111 55.7877 3.24747C60.6679 5.34383 65.0817 8.39112 68.7715 12.2115C76.0579 19.7556 80.0896 29.8597 79.9985 40.3476C79.9074 50.8354 75.7006 60.8679 68.2843 68.2843C60.8679 75.7006 50.8354 79.9074 40.3476 79.9985C29.8597 80.0896 19.7556 76.0579 12.2115 68.7715ZM63.1315 63.1315C69.136 57.127 72.5093 48.9832 72.5093 40.4915C72.5093 31.9999 69.136 23.856 63.1315 17.8515C57.127 11.847 48.9832 8.47373 40.4915 8.47373C31.9999 8.47373 23.856 11.847 17.8515 17.8515C11.847 23.856 8.47373 31.9999 8.47373 40.4915C8.47373 48.9832 11.847 57.127 17.8515 63.1315C23.856 69.136 31.9999 72.5093 40.4915 72.5093C48.9832 72.5093 57.127 69.136 63.1315 63.1315ZM36.4915 20.4915H44.4915V44.4915H36.4915V20.4915ZM36.4915 52.4915H44.4915V60.4915H36.4915V52.4915Z" fill="#F94040"/>
</svg>
