<svg width="38" height="44" viewBox="0 0 38 44" fill="none" xmlns="http://www.w3.org/2000/svg">
<path d="M18.7452 13.3485C29.626 13.3485 37.3333 10.197 37.3333 6.963C37.3333 1.67383 25.4258 0 19.198 0C10.8105 0 0.666656 1.80767 0.666656 10.2538C0.666656 14.7107 3.47532 19.0172 7.41882 22.44C9.36582 24.1303 14.4277 27.7053 13.456 33.1137C12.7483 37.0388 13.5733 41.5397 17.3482 44C17.7057 38.3717 21.4512 33.3593 25.6037 29.161C23.5338 29.6762 20.9947 29.447 20.1055 28.358C25.7943 28.6073 32.5172 24.7867 32.8582 20.6617C31.1202 21.9597 25.3782 22.7627 22.3183 21.043C27.9228 21.043 37.6377 17.5285 36.7393 11.7993C32.178 15.2387 21.5227 15.697 18.7452 13.3485ZM19.198 3.66667C21.2788 3.66667 32.3302 4.3725 32.3302 6.41667C32.3302 8.46083 21.2807 9.16667 19.198 9.16667C9.47216 9.16667 16.0117 6.40567 21.3778 6.303C16.3948 4.89133 8.87999 6.22967 8.88916 7.90717C6.30599 7.37917 4.94566 3.66667 19.198 3.66667ZM24.5 42.1667C24.5 43.1787 23.6805 44 22.6667 44C21.6528 44 20.8333 43.1787 20.8333 42.1667C20.8333 41.1547 21.6528 40.3333 22.6667 40.3333C23.6805 40.3333 24.5 41.1547 24.5 42.1667ZM11.6667 42.1667C11.6667 43.1787 10.8472 44 9.83332 44C8.81949 44 7.99999 43.1787 7.99999 42.1667C7.99999 41.1547 8.81949 40.3333 9.83332 40.3333C10.8472 40.3333 11.6667 41.1547 11.6667 42.1667ZM6.16666 40.3333C6.16666 41.3453 5.34716 42.1667 4.33332 42.1667C3.31949 42.1667 2.49999 41.3453 2.49999 40.3333C2.49999 39.3213 3.31949 38.5 4.33332 38.5C5.34716 38.5 6.16666 39.3213 6.16666 40.3333ZM9.83332 36.6667C9.83332 37.6787 9.01382 38.5 7.99999 38.5C6.98616 38.5 6.16666 37.6787 6.16666 36.6667C6.16666 35.6547 6.98616 34.8333 7.99999 34.8333C9.01382 34.8333 9.83332 35.6547 9.83332 36.6667ZM28.1667 36.6667C28.1667 37.6787 27.3472 38.5 26.3333 38.5C25.3195 38.5 24.5 37.6787 24.5 36.6667C24.5 35.6547 25.3195 34.8333 26.3333 34.8333C27.3472 34.8333 28.1667 35.6547 28.1667 36.6667ZM31.8333 40.3333C31.8333 41.3453 31.0138 42.1667 30 42.1667C28.9862 42.1667 28.1667 41.3453 28.1667 40.3333C28.1667 39.3213 28.9862 38.5 30 38.5C31.0138 38.5 31.8333 39.3213 31.8333 40.3333Z" fill="#E54040"/>
</svg>
