<svg width="38" height="44" viewBox="0 0 38 44" fill="none" xmlns="http://www.w3.org/2000/svg">
<g clip-path="url(#clip0_619_1808)">
<path d="M37.3585 6.11516C37.3585 5.42326 35.2929 5.15362 35.0466 4.5533C34.8004 3.95298 36.0518 2.26054 35.5894 1.79079C35.127 1.32105 33.4769 2.5997 32.8654 2.34533C32.2539 2.09095 32.0043 0.00338745 31.3208 0.00338745C30.6373 0.00338745 30.3709 2.09604 29.7762 2.34533C29.1815 2.59462 27.5129 1.32783 27.0489 1.79418C26.5848 2.26054 27.8396 3.92923 27.5883 4.54991C27.337 5.17058 25.2765 5.41987 25.2765 6.11177C25.2765 6.80367 27.3421 7.0733 27.5883 7.67532C27.8346 8.27734 26.5832 9.96639 27.0455 10.4361C27.5079 10.9059 29.1413 9.64249 29.7628 9.88499C29.4732 10.7094 29.0063 11.4583 28.3958 12.0777C28.1601 12.3158 28.0275 12.639 28.0272 12.9761C28.0269 13.3132 28.1589 13.6367 28.3941 13.8753C28.6294 14.1139 28.9486 14.2481 29.2817 14.2484C29.6147 14.2487 29.9342 14.1151 30.1699 13.877C30.6689 13.3691 31.1024 12.7993 31.4599 12.1811C32.0378 11.9098 32.3126 10.1241 32.8621 9.89347C33.4769 9.63401 35.1254 10.911 35.5894 10.4429C36.0535 9.97487 34.7903 8.30448 35.0466 7.68211C35.3029 7.05974 37.3585 6.80706 37.3585 6.11516Z" fill="#E54040"/>
<path d="M30.2336 19.4596C30.4213 19.2689 30.5267 19.0107 30.5267 18.7415C30.5267 18.4722 30.4213 18.214 30.2336 18.0233L24.9481 12.6729C24.7597 12.4829 24.5046 12.3762 24.2386 12.3762C23.9727 12.3762 23.7175 12.4829 23.5292 12.6729L21.5557 14.6706C18.2768 13.1407 14.5667 12.8436 11.091 13.8326C7.61535 14.8217 4.60158 17.0321 2.59049 20.0674C0.579397 23.1026 -0.297386 26.7639 0.11746 30.3944C0.532306 34.025 2.21163 37.387 4.85411 39.8774C7.49659 42.3677 10.9293 43.8233 14.5362 43.9831C18.1432 44.1428 21.6883 42.9962 24.5356 40.749C27.3828 38.5018 29.3458 35.3011 30.0723 31.7211C30.7988 28.1411 30.2412 24.4163 28.4997 21.2148L30.2336 19.4596ZM11.8542 20.8536C10.6055 21.4061 9.50883 22.2587 8.65931 23.3373C7.8098 24.416 7.2331 25.6882 6.97925 27.0435C6.72539 28.3989 6.80205 29.7965 7.20257 31.115C7.60309 32.4336 8.31538 33.6334 9.27764 34.6102C9.50459 34.85 9.6297 35.1704 9.62617 35.5025C9.62263 35.8346 9.49073 36.1521 9.25873 36.3869C9.02672 36.6218 8.71307 36.7553 8.38499 36.7589C8.0569 36.7625 7.74048 36.6358 7.50353 36.4061C6.25284 35.1361 5.32711 33.5765 4.80663 31.8624C4.28616 30.1483 4.18665 28.3316 4.51675 26.5697C4.84685 24.8079 5.59659 23.1542 6.70093 21.7521C7.80527 20.35 9.23087 19.2417 10.8541 18.5235C11.1593 18.3886 11.505 18.382 11.8151 18.505C12.1252 18.6281 12.3743 18.8708 12.5076 19.1798C12.6408 19.4888 12.6474 19.8387 12.5258 20.1526C12.4043 20.4665 12.1645 20.7187 11.8592 20.8536H11.8542Z" fill="#E54040"/>
</g>
<defs>
<clipPath id="clip0_619_1808">
<rect width="37.3585" height="44" fill="white"/>
</clipPath>
</defs>
</svg>
