<svg width="16" height="21" viewBox="0 0 16 21" fill="none" xmlns="http://www.w3.org/2000/svg">
<path fill-rule="evenodd" clip-rule="evenodd" d="M2.96875 0.6875C1.86418 0.6875 0.96875 1.58293 0.96875 2.6875V18.6875C0.96875 19.7921 1.86418 20.6875 2.96875 20.6875H6.59375V17.5625C6.59375 16.527 7.43322 15.6875 8.46875 15.6875C9.50428 15.6875 10.3438 16.527 10.3438 17.5625V20.6875H13.9688C15.0733 20.6875 15.9688 19.7921 15.9688 18.6875V2.6875C15.9688 1.58293 15.0733 0.6875 13.9688 0.6875H2.96875Z" fill="white"/>
<path d="M3.46881 4.95833C3.46881 4.67068 3.702 4.4375 3.98964 4.4375H5.44798C5.73563 4.4375 5.96881 4.67069 5.96881 4.95833V6.41667C5.96881 6.70431 5.73563 6.9375 5.44798 6.9375H3.98964C3.702 6.9375 3.46881 6.70431 3.46881 6.41667V4.95833Z" fill="#009C4D"/>
<path d="M3.46881 9.95833C3.46881 9.67068 3.702 9.4375 3.98964 9.4375H5.44798C5.73563 9.4375 5.96881 9.67068 5.96881 9.95833V11.4167C5.96881 11.7043 5.73563 11.9375 5.44798 11.9375H3.98964C3.702 11.9375 3.46881 11.7043 3.46881 11.4167V9.95833Z" fill="#009C4D"/>
<path d="M7.21881 4.95833C7.21881 4.67068 7.452 4.4375 7.73964 4.4375H9.19798C9.48563 4.4375 9.71881 4.67069 9.71881 4.95833V6.41667C9.71881 6.70431 9.48563 6.9375 9.19798 6.9375H7.73964C7.452 6.9375 7.21881 6.70431 7.21881 6.41667V4.95833Z" fill="#009C4D"/>
<path d="M7.21881 9.95833C7.21881 9.67068 7.452 9.4375 7.73964 9.4375H9.19798C9.48563 9.4375 9.71881 9.67068 9.71881 9.95833V11.4167C9.71881 11.7043 9.48563 11.9375 9.19798 11.9375H7.73964C7.452 11.9375 7.21881 11.7043 7.21881 11.4167V9.95833Z" fill="#009C4D"/>
<path d="M10.9688 4.95833C10.9688 4.67068 11.202 4.4375 11.4896 4.4375H12.948C13.2356 4.4375 13.4688 4.67069 13.4688 4.95833V6.41667C13.4688 6.70431 13.2356 6.9375 12.948 6.9375H11.4896C11.202 6.9375 10.9688 6.70431 10.9688 6.41667V4.95833Z" fill="#009C4D"/>
<path d="M10.9688 9.95833C10.9688 9.67068 11.202 9.4375 11.4896 9.4375H12.948C13.2356 9.4375 13.4688 9.67068 13.4688 9.95833V11.4167C13.4688 11.7043 13.2356 11.9375 12.948 11.9375H11.4896C11.202 11.9375 10.9688 11.7043 10.9688 11.4167V9.95833Z" fill="#009C4D"/>
</svg>
