<svg width="39" height="39" viewBox="0 0 39 39" fill="none" xmlns="http://www.w3.org/2000/svg">
<g clip-path="url(#clip0_619_1703)">
<path d="M21.9938 19.7966H27.178L28.1523 17.0757L25.9163 12.254L22.4815 4.8511L14.6633 8.55255L10.3818 10.5798L7.0878 19.7758L7.08295 19.7966H13.2972L15.3039 14.1942L22.0787 16.6712L20.9589 19.7966H21.9938Z" fill="#FFADAD"/>
<path d="M6.68378 10.2881L7.46026 11.9623L10.3818 10.5798L14.6633 8.55254L22.4815 4.8511L25.9163 12.2552L28.1523 17.0757L29.4141 19.7966L29.522 20.0258L30.0073 19.7966L31.1806 19.2414C31.7474 18.9724 32.1853 18.4871 32.3983 17.8922C32.6112 17.2972 32.5817 16.6412 32.3162 16.0682L26.2778 3.05308H26.2839L25.5062 1.37762C25.2383 0.804518 24.7569 0.361784 24.167 0.146141C23.577 -0.0695014 22.9266 -0.0405235 22.3578 0.226743L20.6993 1.01238L7.8206 7.12099C7.25443 7.38904 6.81671 7.87312 6.60357 8.46692C6.39042 9.06073 6.41927 9.71572 6.68378 10.2881Z" fill="#E54040"/>
<path d="M13.2972 19.7966H13.9694H20.9589L22.0788 16.6712L15.304 14.1942L13.2972 19.7966Z" fill="white"/>
<path d="M-0.00244993 39H34.1021L39 30.3886L20.5331 25.7152L27.206 22.1425L21.989 19.7966H13.9694L18.6513 22.0506L5.80539 26.9066L22.6757 30.8458C22.6757 30.8458 -0.269366 39 -0.00244993 39Z" fill="#E54040"/>
</g>
<defs>
<clipPath id="clip0_619_1703">
<rect width="39" height="39" fill="white"/>
</clipPath>
</defs>
</svg>
