<svg width="34" height="44" viewBox="0 0 34 44" fill="none" xmlns="http://www.w3.org/2000/svg">
<path fill-rule="evenodd" clip-rule="evenodd" d="M10.8125 0C11.9308 13.1798 0.5 17.7173 0.5 29.326C0.5 37.2112 6.1265 43.9413 17 44C27.8735 44.0587 33.5 35.9077 33.5 27.5807C33.5 19.9888 29.7197 12.8297 22.588 8.37833C24.282 13.1578 22.027 17.523 19.8362 19.0263C19.9645 12.9085 17.7737 3.82983 10.8125 0ZM19.4493 23.8333C26.3335 31.1465 22.1058 40.3333 16.5765 40.3333C13.2123 40.3333 11.4817 38.0142 11.5 35.6088C11.5348 31.1483 16.5178 31.1447 19.4493 23.8333Z" fill="#E54040"/>
</svg>
