<svg width="44" height="37" viewBox="0 0 44 37" fill="none" xmlns="http://www.w3.org/2000/svg">
<g clip-path="url(#clip0_619_1768)">
<path fill-rule="evenodd" clip-rule="evenodd" d="M34.9148 26.6935L33.6228 29.3717L35.8528 31.4043C35.9045 31.4698 35.9372 31.5482 35.9472 31.6309C35.9572 31.7136 35.9441 31.7975 35.9094 31.8733C35.8186 31.9269 35.7198 31.966 35.6167 31.989L32.57 31.6466L31.3377 34.3249C31.2197 34.5 31.1033 34.5594 30.927 34.5C30.8105 34.4406 30.7507 34.3827 30.7507 34.267V34.3249L30.1669 31.3542L27.117 31.0056C27.0461 30.9787 26.9855 30.9305 26.9434 30.8677C26.9014 30.8049 26.8801 30.7307 26.8825 30.6554C26.8825 30.5381 26.9407 30.4208 27.0588 30.4208L29.6365 28.9668L29.4634 27.8004L29.9906 27.5096L30.3416 29.0246C30.3436 29.0926 30.3287 29.1599 30.2982 29.2207C30.2677 29.2815 30.2226 29.334 30.1669 29.3733L28.173 30.4818L30.4596 30.7085C30.5268 30.7329 30.5878 30.7717 30.6382 30.8223C30.6885 30.8728 30.727 30.9338 30.7507 31.0009L31.1615 33.2101L32.1057 31.1776C32.1248 31.1024 32.1712 31.037 32.2361 30.994C32.3009 30.9509 32.3795 30.9334 32.4567 30.9446L34.7433 31.2354L33.0421 29.722C32.9917 29.668 32.959 29.5999 32.9486 29.527C32.9382 29.454 32.9505 29.3797 32.9839 29.3139L33.9281 27.2813L31.9326 28.3867C31.8792 28.4172 31.8187 28.4332 31.7571 28.4332C31.6956 28.4332 31.6351 28.4172 31.5817 28.3867L30.469 27.3408L31.0545 27.05L31.8162 27.7473L34.4553 26.2932C34.4926 26.2656 34.5355 26.2465 34.5811 26.2374C34.6267 26.2282 34.6737 26.2292 34.7189 26.2403C34.764 26.2513 34.8061 26.2722 34.8422 26.3014C34.8783 26.3305 34.9074 26.3673 34.9274 26.4089V26.6997L34.9148 26.6935Z" fill="#FFADAD"/>
<path fill-rule="evenodd" clip-rule="evenodd" d="M26.2971 29.3137C23.9506 30.6536 21.6073 31.992 19.3207 33.3335C17.4448 34.4373 15.6854 34.4373 14.0456 33.0411C13.4586 32.6346 12.7551 32.2828 12.2861 31.759C10.7124 30.1862 9.17957 30.1862 7.47994 31.5276C6.71825 32.1077 5.72208 33.0411 4.78256 31.4682C3.96265 30.1862 4.31044 29.4888 5.54425 28.9057C6.71825 28.3256 6.07302 27.6236 5.66071 26.9263C3.96265 23.9557 2.32124 20.9272 0.503582 18.0144C-0.316332 16.6745 -0.198301 15.8021 1.3235 15.1016C2.02853 14.7529 2.73986 14.4043 3.36935 13.8805C5.18701 12.5985 6.65216 12.3655 7.5901 14.8686C7.88439 15.7442 8.53434 15.7442 9.28973 15.2783C13.8032 12.6563 18.3167 10.0937 22.8317 7.53275C23.9443 6.89172 23.6532 6.13343 23.0662 5.3767C22.0684 3.97894 22.1865 3.04866 23.8861 2.17311C29.5138 -0.853812 28.0502 -1.14462 31.1552 4.03679C32.3874 6.13343 33.6165 8.17222 34.7905 10.2689C35.3177 11.207 35.8465 11.726 36.8363 10.9693C38.0072 10.0937 38.654 10.7926 39.2394 11.7823C39.8831 12.8908 39.2977 13.4725 38.4164 13.7633C35.4861 14.7014 35.3696 16.6745 35.8402 19.2355C36.4838 23.1442 36.0747 23.7196 32.5574 25.6989C30.5115 26.8653 28.3948 28.0895 26.2845 29.3106L26.2971 29.3137Z" fill="#E54040"/>
<path fill-rule="evenodd" clip-rule="evenodd" d="M21.6073 20.2331C18.1451 22.2125 14.6829 24.2513 11.1735 26.1744C9.64855 26.989 9.29603 27.7379 10.9972 28.7948C12.2295 29.6094 13.4586 30.5412 14.6908 31.4731C16.0379 32.5222 17.3866 32.5222 18.9115 31.6482C22.4273 29.5515 26.0043 27.5706 29.5201 25.4755C36.1439 21.6325 35.2075 23.2616 34.4459 15.5176C34.4459 15.4004 34.3876 15.2847 34.3876 15.108C34.3278 13.421 33.5063 13.3632 32.2174 14.1183C28.7002 16.1509 25.1262 18.1959 21.6073 20.2347V20.2331Z" fill="white"/>
<path fill-rule="evenodd" clip-rule="evenodd" d="M16.8594 11.7903C15.5107 12.5486 14.1636 13.3069 12.8731 14.062C12.2295 14.4701 11.6991 15.0001 12.2861 15.81C12.7582 16.5667 13.3421 16.3916 13.9857 16.043L21.9 11.5088C22.5437 11.1008 22.8946 10.5708 22.4855 9.87656C22.0747 9.11983 21.4311 9.23709 20.8441 9.5279C19.497 10.2846 18.2065 11.0414 16.8594 11.7981V11.7903Z" fill="#FFADAD"/>
<path fill-rule="evenodd" clip-rule="evenodd" d="M28.5239 6.54477C28.2366 6.67565 27.9622 6.83267 27.704 7.01382C26.7063 7.65329 25.3607 7.88625 26.4151 9.69208C27.4695 11.4979 28.3492 10.5067 29.4052 9.92504C30.17 9.51697 30.8719 9.05105 31.6352 8.58513C32.1624 8.3506 32.6896 8.00194 32.3386 7.30463C32.0444 6.60418 31.8665 5.61449 30.99 5.49879C29.9938 5.32368 29.2887 6.19768 28.5271 6.5479L28.5239 6.54477Z" fill="#FFADAD"/>
<path fill-rule="evenodd" clip-rule="evenodd" d="M8.00872 19.8219L7.6562 19.9971C6.60022 20.6365 5.07528 20.9273 6.24928 22.8489C7.36191 24.6547 8.2432 23.432 9.23938 22.9661C9.94441 22.6175 10.6463 22.0937 11.3498 21.745C12.582 21.1603 12.294 20.4036 11.7605 19.4733C11.2317 18.5977 10.7643 18.1334 9.71464 18.8307C9.18587 19.1809 8.60044 19.4733 8.01501 19.8219H8.00872Z" fill="#FFADAD"/>
<path d="M44 35.08H3.31903V37H44V35.08Z" fill="#FFADAD"/>
</g>
<defs>
<clipPath id="clip0_619_1768">
<rect width="44" height="37" fill="white"/>
</clipPath>
</defs>
</svg>
