<svg width="44" height="30" viewBox="0 0 44 30" fill="none" xmlns="http://www.w3.org/2000/svg">
<path d="M8.3765 8.87117C10.9267 8.587 13.761 6.36134 14.8518 4.00734H29.3333V13.3812C24.2037 13.3812 26.2423 20.0435 20.174 20.9822C16.5293 21.545 14.201 19.7098 13.9755 17.4438C13.6125 13.8248 11.5353 10.6147 8.3765 8.87117ZM25.1002 5.75634H18.5717C18.2252 5.75634 17.9428 6.03684 17.9428 6.38517C17.9428 6.73167 18.2233 7.01217 18.5717 7.01217H25.1002V5.75634ZM25.1002 8.11584H18.5717C18.2252 8.11584 17.9428 8.39634 17.9428 8.74284C17.9428 9.08934 18.2233 9.36984 18.5717 9.36984H25.1002V8.11584ZM25.1002 11.7293V10.4735H18.5717C18.2252 10.4735 17.9428 10.754 17.9428 11.1023C17.9428 11.4488 18.2233 11.7293 18.5717 11.7293H25.1002ZM19.371 19.5338C24.53 19.0205 24.2183 13.0347 18.4213 13.9293C14.4027 14.5527 14.6722 20.0013 19.371 19.5338ZM31.1667 4.00734V9.5H42.1923C42.3023 8.59984 42.834 7.65567 44 7.37884V4.00734H31.1667ZM38.5 2.66167H42.7112V0.771503C42.7112 0.426837 42.3665 0.221503 42.0402 0.397503L38.5 2.66167ZM11.3483 6.45667C11.8012 6.1285 12.2265 5.76 12.6353 5.32367C11.6655 4.77917 10.7525 4.418 9.5535 4.33C9.11167 4.297 8.91367 4.8305 9.35733 5.01934C10.2483 5.40067 10.857 5.7765 11.3483 6.45667ZM16.9088 16.1605C17.5065 17.2055 18.513 18.2615 19.3673 18.3312C19.6332 18.3532 19.8147 18.1057 19.712 17.8673C19.5158 17.4145 18.2857 16.5015 18.5717 15.022C17.6697 15.1687 17.1362 15.6288 16.9088 16.1605ZM7.2105 10.3672C10.065 11.8375 11.9717 14.6828 12.2302 17.9022C10.8057 18.4943 9.16666 19.5833 9.16666 23.2885V27.8077C9.16666 29.3605 8.54333 29.6667 6.93733 29.6667H2.36683C0.551834 29.6667 0 29.1002 0 27.8352C0 25.0357 0.725998 20.8172 3.66117 16.6903C5.09483 14.6718 6.96667 13.2987 7.2105 10.3672ZM8.3655 17.651C9.08233 17.651 9.66167 17.0717 9.66167 16.353C9.66167 15.6343 9.08233 15.055 8.3655 15.055C7.64867 15.055 7.0675 15.6343 7.0675 16.353C7.0675 17.0717 7.6505 17.651 8.3655 17.651Z" fill="#E54040"/>
</svg>
