<svg width="151" height="138" viewBox="0 0 151 138" fill="none" xmlns="http://www.w3.org/2000/svg">
<g clip-path="url(#clip0_619_1481)">
<path d="M97.2322 128.779H53.7677C52.404 128.779 51.0558 128.491 49.8124 127.934C48.5689 127.377 47.4586 126.563 46.5548 125.547C45.651 124.532 44.9743 123.337 44.5695 122.041C44.1647 120.746 44.0411 119.38 44.2067 118.033L51.2988 60.4532C51.7108 57.0983 53.3432 54.0094 55.8879 51.7695C58.4327 49.5297 61.7138 48.2938 65.1119 48.2952H85.888C89.2861 48.2938 92.5672 49.5297 95.1119 51.7695C97.6567 54.0094 99.2891 57.0983 99.7011 60.4532L106.793 118.033C106.959 119.38 106.835 120.746 106.43 122.041C106.026 123.337 105.349 124.532 104.445 125.547C103.541 126.563 102.431 127.377 101.188 127.934C99.9441 128.491 98.5959 128.779 97.2322 128.779Z" fill="#F1635F"/>
<path d="M99.7011 60.4532C99.2892 57.0983 97.6568 54.0094 95.112 51.7695C92.5672 49.5297 89.2862 48.2938 85.8881 48.2952H74.915V128.779H97.2322C98.596 128.779 99.9441 128.491 101.188 127.934C102.431 127.377 103.541 126.563 104.445 125.547C105.349 124.532 106.026 123.337 106.43 122.041C106.835 120.746 106.959 119.38 106.793 118.033L99.7011 60.4532Z" fill="#EF3F32"/>
<path d="M52.6543 105.675H52.5333C52.2702 105.643 52.0306 105.508 51.8673 105.3C51.7039 105.093 51.63 104.829 51.6619 104.567L52.7431 95.7397C52.7793 95.4782 52.9169 95.2412 53.1265 95.0793C53.336 94.9173 53.6009 94.8433 53.8646 94.873C54.1277 94.9051 54.3673 95.0398 54.5307 95.2474C54.694 95.4551 54.7679 95.7187 54.736 95.9805L53.6468 104.808C53.6154 105.048 53.4974 105.268 53.3148 105.427C53.1321 105.587 52.8974 105.675 52.6543 105.675Z" fill="white"/>
<path d="M75.504 105.129C86.6174 105.129 95.6266 96.1682 95.6266 85.1144C95.6266 74.0607 86.6174 65.0998 75.504 65.0998C64.3907 65.0998 55.3815 74.0607 55.3815 85.1144C55.3815 96.1682 64.3907 105.129 75.504 105.129Z" fill="#F37F80"/>
<path d="M54.8893 89.5523H54.7683C54.5052 89.5202 54.2656 89.3856 54.1023 89.1779C53.9389 88.9703 53.865 88.7066 53.8969 88.4449L57.3583 60.3569C57.3695 60.2236 57.4077 60.0938 57.4705 59.9754C57.5333 59.8571 57.6195 59.7525 57.7239 59.668C57.8283 59.5836 57.9487 59.5209 58.078 59.4838C58.2073 59.4467 58.3428 59.436 58.4764 59.4522C58.61 59.4684 58.7389 59.5112 58.8554 59.5781C58.972 59.645 59.0738 59.7346 59.1547 59.8416C59.2356 59.9485 59.294 60.0706 59.3264 60.2005C59.3587 60.3305 59.3644 60.4655 59.3431 60.5977L55.8818 88.6856C55.8504 88.9253 55.7324 89.1455 55.5498 89.305C55.3671 89.4645 55.1324 89.5524 54.8893 89.5523Z" fill="white"/>
<path d="M74.915 65.1239V105.097C75.1087 105.097 75.3023 105.097 75.504 105.097C80.7722 104.992 85.7889 102.837 89.4773 99.0941C93.1657 95.3513 95.2317 90.3193 95.2317 85.0783C95.2317 79.8374 93.1657 74.8054 89.4773 71.0626C85.7889 67.3198 80.7722 65.1646 75.504 65.0597C75.3023 65.0918 75.1087 65.1158 74.915 65.1239Z" fill="#F1635F"/>
<path d="M114.329 138H36.6789C36.3241 138.005 35.9725 137.932 35.649 137.787C35.3256 137.642 35.0382 137.428 34.8072 137.16C34.5763 136.892 34.4074 136.576 34.3125 136.236C34.2177 135.896 34.1992 135.539 34.2584 135.191L35.9931 124.654C36.3735 122.416 37.5365 120.383 39.277 118.915C41.0175 117.447 43.2235 116.637 45.5057 116.629H105.446C107.728 116.637 109.934 117.447 111.675 118.915C113.415 120.383 114.578 122.416 114.958 124.654L116.693 135.191C116.752 135.535 116.734 135.886 116.643 136.223C116.551 136.559 116.387 136.871 116.163 137.138C115.938 137.405 115.658 137.62 115.341 137.769C115.024 137.918 114.679 137.997 114.329 138Z" fill="#56585B"/>
<path d="M114.983 124.654C114.602 122.416 113.439 120.383 111.699 118.915C109.958 117.447 107.752 116.637 105.47 116.629H74.915V138.008H114.329C114.684 138.013 115.036 137.94 115.359 137.795C115.682 137.65 115.97 137.436 116.201 137.168C116.432 136.9 116.601 136.584 116.696 136.244C116.79 135.904 116.809 135.547 116.75 135.199L114.983 124.654Z" fill="#3E3F41"/>
<path d="M75.504 0.0160493C75.1568 0.0149934 74.8129 0.0820873 74.4919 0.213494C74.1708 0.3449 73.879 0.538039 73.6332 0.781825C73.3873 1.02561 73.1923 1.31526 73.0592 1.63416C72.9261 1.95307 72.8575 2.29497 72.8575 2.64027V31.8597C72.8377 32.2171 72.8913 32.5747 73.0151 32.9108C73.139 33.2468 73.3304 33.5542 73.5777 33.8142C73.825 34.0742 74.123 34.2812 74.4535 34.4228C74.7841 34.5643 75.1401 34.6373 75.5 34.6373C75.8598 34.6373 76.2159 34.5643 76.5464 34.4228C76.8769 34.2812 77.1749 34.0742 77.4222 33.8142C77.6695 33.5542 77.8609 33.2468 77.9848 32.9108C78.1086 32.5747 78.1622 32.2171 78.1424 31.8597V2.62421C78.1413 2.28065 78.0722 1.94065 77.939 1.62365C77.8059 1.30664 77.6112 1.01882 77.3663 0.776633C77.1213 0.534443 76.8307 0.342624 76.5112 0.212122C76.1916 0.0816205 75.8494 0.0149938 75.504 0.0160493Z" fill="#EF3F32"/>
<path d="M148.354 72.4588H118.977C118.275 72.4588 117.602 72.7361 117.105 73.2298C116.609 73.7234 116.33 74.3929 116.33 75.0911C116.33 75.7892 116.609 76.4587 117.105 76.9524C117.602 77.446 118.275 77.7233 118.977 77.7233H148.354C149.055 77.7233 149.729 77.446 150.225 76.9524C150.721 76.4587 151 75.7892 151 75.0911C151 74.3929 150.721 73.7234 150.225 73.2298C149.729 72.7361 149.055 72.4588 148.354 72.4588Z" fill="#EF3F32"/>
<path d="M32.0235 72.4588H2.63032C1.92844 72.4588 1.25531 72.7361 0.759012 73.2298C0.26271 73.7234 -0.0161133 74.3929 -0.0161133 75.0911C-0.0161133 75.7892 0.26271 76.4587 0.759012 76.9524C1.25531 77.446 1.92844 77.7233 2.63032 77.7233H32.0074C32.7092 77.7233 33.3824 77.446 33.8787 76.9524C34.375 76.4587 34.6538 75.7892 34.6538 75.0911C34.6538 74.3929 34.375 73.7234 33.8787 73.2298C33.3824 72.7361 32.7092 72.4588 32.0074 72.4588H32.0235Z" fill="#EF3F32"/>
<path d="M117.201 33.6493C116.956 33.405 116.665 33.2111 116.345 33.0789C116.024 32.9466 115.681 32.8785 115.334 32.8785C114.987 32.8785 114.643 32.9466 114.323 33.0789C114.002 33.2111 113.711 33.405 113.466 33.6493L104.373 42.6535C103.909 43.1536 103.658 43.8126 103.673 44.4926C103.687 45.1726 103.965 45.8207 104.449 46.3011C104.933 46.7815 105.585 47.0569 106.269 47.0696C106.953 47.0822 107.615 46.8313 108.116 46.3692L117.201 37.365C117.447 37.1212 117.642 36.8316 117.775 36.5128C117.908 36.1941 117.976 35.8523 117.976 35.5072C117.976 35.162 117.908 34.8203 117.775 34.5015C117.642 34.1827 117.447 33.8931 117.201 33.6493Z" fill="#EF3F32"/>
<path d="M128.094 22.7833C127.848 22.5387 127.556 22.3447 127.235 22.2123C126.914 22.0799 126.57 22.0118 126.222 22.0118C125.874 22.0118 125.53 22.0799 125.209 22.2123C124.888 22.3447 124.596 22.5387 124.35 22.7833L121.631 25.4958C121.136 25.9885 120.857 26.6568 120.857 27.3536C120.857 28.0504 121.136 28.7187 121.631 29.2114C122.126 29.7042 122.798 29.981 123.499 29.981C124.199 29.981 124.871 29.7042 125.367 29.2114L128.094 26.499C128.588 26.0056 128.865 25.3376 128.865 24.6411C128.865 23.9447 128.588 23.2767 128.094 22.7833Z" fill="#EF3F32"/>
<path d="M37.5745 33.6493C37.0728 33.1872 36.4107 32.9362 35.727 32.9489C35.0434 32.9616 34.3912 33.237 33.9071 33.7174C33.4231 34.1978 33.1448 34.8459 33.1306 35.5259C33.1163 36.2059 33.3673 36.8649 33.8308 37.365L42.8916 46.3692C43.3869 46.8619 44.0588 47.1387 44.7594 47.1387C45.46 47.1387 46.1318 46.8619 46.6272 46.3692C47.1226 45.8764 47.4009 45.2082 47.4009 44.5113C47.4009 43.8145 47.1226 43.1462 46.6272 42.6535L37.5745 33.6493Z" fill="#EF3F32"/>
<path d="M27.3357 23.4655C26.833 23.0044 26.1703 22.7549 25.4867 22.769C24.8031 22.7832 24.1515 23.06 23.6685 23.5414C23.1855 24.0229 22.9086 24.6716 22.8958 25.3516C22.8831 26.0316 23.1354 26.6901 23.6 27.1891L26.3191 29.8936C26.8208 30.3557 27.4829 30.6067 28.1665 30.594C28.8502 30.5813 29.5024 30.3059 29.9864 29.8255C30.4704 29.3451 30.7487 28.697 30.763 28.017C30.7772 27.337 30.5263 26.678 30.0628 26.1779L27.3357 23.4655Z" fill="#EF3F32"/>
</g>
<defs>
<clipPath id="clip0_619_1481">
<rect width="151" height="138" fill="white"/>
</clipPath>
</defs>
</svg>
