<?xml version="1.0" standalone="no"?>
<!DOCTYPE svg PUBLIC "-//W3C//DTD SVG 20010904//EN"
 "http://www.w3.org/TR/2001/REC-SVG-20010904/DTD/svg10.dtd">
<svg version="1.0" xmlns="http://www.w3.org/2000/svg"
 width="512.000000pt" height="512.000000pt" viewBox="0 0 512.000000 512.000000"
 preserveAspectRatio="xMidYMid meet">

<g transform="translate(0.000000,512.000000) scale(0.100000,-0.100000)"
fill="#000000" stroke="none">
<path d="M1215 4786 c-73 -33 -95 -83 -95 -212 l0 -94 -179 0 c-98 0 -202 -5
-232 -10 -138 -26 -273 -129 -334 -254 -19 -39 -40 -95 -45 -125 -14 -74 -14
-2669 0 -2742 25 -131 131 -274 248 -333 112 -57 84 -56 1239 -56 l1063 0 2
763 3 762 27 51 c40 76 70 107 140 145 57 30 71 33 148 34 73 0 92 -4 136 -27
29 -15 213 -171 435 -368 l384 -341 3 1028 c1 661 -2 1047 -8 1083 -26 138
-128 273 -254 335 -95 47 -147 55 -356 55 l-178 0 -4 109 c-3 118 -12 141 -72
185 -39 29 -133 29 -172 0 -60 -44 -69 -67 -72 -185 l-4 -109 -798 0 -798 0
-4 109 c-3 118 -12 141 -70 184 -34 25 -113 32 -153 13z m-93 -735 c3 -118 12
-141 72 -185 39 -29 133 -29 172 0 60 44 69 67 72 185 l4 109 798 0 798 0 4
-109 c3 -118 12 -141 72 -185 39 -29 133 -29 172 0 60 44 69 67 72 185 l4 110
188 -3 c206 -3 215 -6 264 -72 20 -26 21 -43 24 -297 l3 -269 -1601 0 -1600 0
0 254 c0 264 4 292 43 335 41 44 70 50 259 51 l176 0 4 -109z m404 -1357 c53
-39 69 -71 69 -134 0 -63 -16 -95 -69 -134 -23 -18 -45 -22 -144 -24 -137 -4
-179 6 -221 53 -52 59 -54 147 -4 206 44 52 73 59 215 57 110 -3 130 -6 154
-24z m960 0 c53 -39 69 -71 69 -134 0 -63 -16 -95 -69 -134 -23 -18 -45 -22
-144 -24 -137 -4 -179 6 -221 53 -52 59 -54 147 -4 206 44 52 73 59 215 57
110 -3 130 -6 154 -24z m-960 -640 c53 -39 69 -71 69 -134 0 -63 -16 -95 -69
-134 -23 -18 -45 -22 -144 -24 -137 -4 -179 6 -221 53 -52 59 -54 147 -4 206
44 52 73 59 215 57 110 -3 130 -6 154 -24z m960 0 c53 -39 69 -71 69 -134 0
-63 -16 -95 -69 -134 -23 -18 -45 -22 -144 -24 -137 -4 -179 6 -221 53 -52 59
-54 147 -4 206 44 52 73 59 215 57 110 -3 130 -6 154 -24z"/>
<path d="M3135 2546 c-41 -18 -83 -69 -90 -109 -3 -18 -4 -478 -3 -1024 3
-984 3 -992 24 -1019 32 -44 68 -66 117 -71 43 -5 92 15 794 327 411 182 759
341 772 353 48 44 63 118 37 181 -10 23 -229 225 -755 692 -408 362 -754 664
-769 671 -36 16 -90 15 -127 -1z"/>
</g>
</svg>
