<svg width="24" height="20" viewBox="0 0 24 20" fill="none" xmlns="http://www.w3.org/2000/svg">
<path opacity="0.5" fill-rule="evenodd" clip-rule="evenodd" d="M2 4C0.895431 4 0 4.89543 0 6V7.6H2.99989C3.33126 7.6 3.59989 7.86863 3.59989 8.2C3.59989 8.53137 3.33126 8.8 2.99989 8.8H0V11.2H2.99989C3.33126 11.2 3.59989 11.4686 3.59989 11.8C3.59989 12.1314 3.33126 12.4 2.99989 12.4H0V17.6C0 18.7046 0.89543 19.6 2 19.6H6V4H2Z" fill="#3C96E1"/>
<path opacity="0.5" fill-rule="evenodd" clip-rule="evenodd" d="M22 4C23.1046 4 24 4.89543 24 6V17.6C24 18.7046 23.1046 19.6 22 19.6H18V4H22Z" fill="#3C96E1"/>
<path d="M24 8.19998V7.59998H20.713C20.5401 7.59998 20.4 7.8686 20.4 8.19998C20.4 8.53135 20.5401 8.79998 20.713 8.79998H24V8.19998Z" fill="#009C4D"/>
<path d="M24 11.8V11.2H20.713C20.5401 11.2 20.4 11.4686 20.4 11.8C20.4 12.1313 20.5401 12.4 20.713 12.4H24V11.8Z" fill="#009C4D"/>
<path d="M3.67165e-05 8.19998V7.59998H3.28699C3.45988 7.59998 3.60004 7.8686 3.60004 8.19998C3.60004 8.53135 3.45988 8.79998 3.28699 8.79998H3.67165e-05V8.19998Z" fill="#009C4D"/>
<path d="M3.67165e-05 11.8V11.2H3.28699C3.45988 11.2 3.60004 11.4686 3.60004 11.8C3.60004 12.1313 3.45988 12.4 3.28699 12.4H3.67165e-05V11.8Z" fill="#009C4D"/>
<path fill-rule="evenodd" clip-rule="evenodd" d="M6 2.40002C6 1.29545 6.89543 0.400024 8 0.400024H16C17.1046 0.400024 18 1.29545 18 2.40002V19.6H13.7999V16.6C13.7999 15.6059 12.994 14.8 11.9999 14.8C11.0058 14.8 10.1999 15.6059 10.1999 16.6V19.6H6V2.40002ZM11.7 2.80003C11.3687 2.80003 11.1 3.06866 11.1 3.40003V4.30003H10.2C9.86867 4.30003 9.60004 4.56866 9.60004 4.90003V5.50003C9.60004 5.8314 9.86867 6.10003 10.2 6.10003H11.1V7.00003C11.1 7.3314 11.3687 7.60003 11.7 7.60003H12.3C12.6314 7.60003 12.9 7.3314 12.9 7.00003V6.10003H13.8C14.1314 6.10003 14.4 5.8314 14.4 5.50003V4.90003C14.4 4.56866 14.1314 4.30003 13.8 4.30003H12.9V3.40003C12.9 3.06866 12.6314 2.80003 12.3 2.80003H11.7Z" fill="#009C4D"/>
</svg>
