<svg width="24" height="24" viewBox="0 0 24 24" fill="none" xmlns="http://www.w3.org/2000/svg">
<path d="M4 15.5V6C4 5.31667 4.15833 4.72083 4.475 4.2125C4.79167 3.70417 5.27917 3.2875 5.9375 2.9625C6.59583 2.6375 7.42917 2.39583 8.4375 2.2375C9.44583 2.07917 10.6333 2 12 2C13.4333 2 14.6542 2.075 15.6625 2.225C16.6708 2.375 17.4958 2.6125 18.1375 2.9375C18.7792 3.2625 19.25 3.675 19.55 4.175C19.85 4.675 20 5.28333 20 6V15.5C20 16.4833 19.6625 17.3125 18.9875 17.9875C18.3125 18.6625 17.4833 19 16.5 19L18 20.5V21H16.25L14.25 19H9.75L7.75 21H6V20.5L7.5 19C6.51667 19 5.6875 18.6625 5.0125 17.9875C4.3375 17.3125 4 16.4833 4 15.5ZM12 3.5C10 3.5 8.55833 3.62917 7.675 3.8875C6.79167 4.14583 6.15833 4.51667 5.775 5H18.3C18 4.55 17.3625 4.1875 16.3875 3.9125C15.4125 3.6375 13.95 3.5 12 3.5ZM5.5 10.375H11.35V6.5H5.5V10.375ZM16.5 11.875H5.5H18.5H16.5ZM12.85 10.375H18.5V6.5H12.85V10.375ZM8.375 16.125C8.75833 16.125 9.08333 15.9917 9.35 15.725C9.61667 15.4583 9.75 15.1333 9.75 14.75C9.75 14.3667 9.61667 14.0417 9.35 13.775C9.08333 13.5083 8.75833 13.375 8.375 13.375C7.99167 13.375 7.66667 13.5083 7.4 13.775C7.13333 14.0417 7 14.3667 7 14.75C7 15.1333 7.13333 15.4583 7.4 15.725C7.66667 15.9917 7.99167 16.125 8.375 16.125ZM15.625 16.125C16.0083 16.125 16.3333 15.9917 16.6 15.725C16.8667 15.4583 17 15.1333 17 14.75C17 14.3667 16.8667 14.0417 16.6 13.775C16.3333 13.5083 16.0083 13.375 15.625 13.375C15.2417 13.375 14.9167 13.5083 14.65 13.775C14.3833 14.0417 14.25 14.3667 14.25 14.75C14.25 15.1333 14.3833 15.4583 14.65 15.725C14.9167 15.9917 15.2417 16.125 15.625 16.125ZM7.5 17.625H16.5C17.0667 17.625 17.5417 17.4167 17.925 17C18.3083 16.5833 18.5 16.0833 18.5 15.5V11.875H5.5V15.5C5.5 16.0833 5.69167 16.5833 6.075 17C6.45833 17.4167 6.93333 17.625 7.5 17.625ZM12 5H18.3H5.775H12Z" fill="currentColor"/>
</svg>
