<svg width="26" height="26" viewBox="0 0 26 26" fill="none" xmlns="http://www.w3.org/2000/svg">
<path fill-rule="evenodd" clip-rule="evenodd" d="M21.9133 22.4627C23.2054 21.2487 24.2346 19.7825 24.9375 18.1549C25.6404 16.5274 26.0021 14.7729 26 13C26 5.82 20.18 0 13 0C5.82001 0 8.67895e-06 5.82 8.67895e-06 13C-0.00204266 14.7729 0.359564 16.5274 1.06248 18.1549C1.76539 19.7825 2.79466 21.2487 4.08668 22.4627C6.49592 24.7385 9.6858 26.0045 13 26C16.3142 26.0045 19.5041 24.7385 21.9133 22.4627ZM5.19334 20.7493C6.12945 19.5782 7.31736 18.633 8.66886 17.9839C10.0204 17.3348 11.5007 16.9985 13 17C14.4993 16.9985 15.9797 17.3348 17.3312 17.9839C18.6827 18.633 19.8706 19.5782 20.8067 20.7493C19.7854 21.7809 18.5694 22.5995 17.2293 23.1575C15.8892 23.7155 14.4516 24.0019 13 24C11.5484 24.0019 10.1108 23.7155 8.77071 23.1575C7.43061 22.5995 6.21464 21.7809 5.19334 20.7493ZM18 9C18 10.3261 17.4732 11.5979 16.5355 12.5355C15.5979 13.4732 14.3261 14 13 14C11.6739 14 10.4022 13.4732 9.46447 12.5355C8.52679 11.5979 8.00001 10.3261 8.00001 9C8.00001 7.67392 8.52679 6.40215 9.46447 5.46447C10.4022 4.52678 11.6739 4 13 4C14.3261 4 15.5979 4.52678 16.5355 5.46447C17.4732 6.40215 18 7.67392 18 9Z" fill="#333333"/>
</svg>
